<?xml version="1.0" encoding="utf-8"?>
<!-- Generator: Adobe Illustrator 24.3.0, SVG Export Plug-In . SVG Version: 6.00 Build 0)  -->
<svg version="1.1" id="Layer_1" xmlns="http://www.w3.org/2000/svg" xmlns:xlink="http://www.w3.org/1999/xlink" x="0px" y="0px"
	 viewBox="0 0 31.9 32" style="enable-background:new 0 0 31.9 32;" xml:space="preserve">
<style type="text/css">
	.st0{clip-path:url(#SVGID_2_);}
	.st1{fill:#00563E;}
	.st2{fill:#003C2A;}
	.st3{fill:#FFFFFF;}
	.st4{fill:#FC7205;}
</style>
<g>
	<defs>
		<rect id="SVGID_1_" x="-0.1" width="32" height="32"/>
	</defs>
	<clipPath id="SVGID_2_">
		<use xlink:href="#SVGID_1_"  style="overflow:visible;"/>
	</clipPath>
	<g class="st0">
		<rect x="-0.3" y="-1.4" class="st1" width="34.2" height="35"/>
	</g>
	<g class="st0">
		<g>
			<path class="st2" d="M6.9,25.6l9.4-9.1l17.9,0l-1.9,1.8l-13.2,0L17.3,20l13.2,0l-1.9,1.8l-12.8,0l-1.9,1.9l13.1,0L25,25.6
				L6.9,25.6z"/>
		</g>
		<g>
			<g>
				<path class="st3" d="M6.8,25.6V6.4H18c1.4,0,2.6,0.3,3.6,0.8c1,0.5,1.7,1.3,2.1,2.2c0.5,0.9,0.7,2,0.7,3.1
					c0,1.2-0.3,2.3-0.9,3.3c-0.6,1-1.4,1.7-2.4,2.3l3.9,7.6h-5.6l-3.2-6.8h-4.4v6.8H6.8z M11.9,15.1H17c0.7,0,1.2-0.2,1.7-0.7
					c0.4-0.5,0.6-1.1,0.6-1.8c0-0.5-0.1-0.9-0.3-1.3c-0.2-0.4-0.4-0.6-0.8-0.8c-0.3-0.2-0.7-0.3-1.2-0.3h-5.2V15.1z"/>
			</g>
			<g>
				<path class="st4" d="M6.8,25.6V6.4H18c1.4,0,2.6,0.3,3.6,0.8c1,0.5,1.7,1.3,2.1,2.2c0.5,0.9,0.7,2,0.7,3.1
					c0,1.2-0.3,2.3-0.9,3.3c-0.6,1-1.4,1.7-2.4,2.3l3.9,7.6h-5.6l-3.2-6.8h-4.4v6.8H6.8z M11.9,15.1H17c0.7,0,1.2-0.2,1.7-0.7
					c0.4-0.5,0.6-1.1,0.6-1.8c0-0.5-0.1-0.9-0.3-1.3c-0.2-0.4-0.4-0.6-0.8-0.8c-0.3-0.2-0.7-0.3-1.2-0.3h-5.2V15.1z"/>
			</g>
		</g>
	</g>
</g>
</svg>
